# xmcd
#
# Track frame offsets:
#	150
#	17946
#	33238
#	54833
#	72623
#	88116
#	102281
#	123914
#	142937
#	157433
#	175534
#	191781
#	210242
#
# Disc length: 3090 seconds
#
# Revision: 0
# Processed by: cddbd v1.4PL0 Copyright (c) Steve Scherf et al.
# Submitted via: audiograbber 1.80.04
#
DISCID=b10c100d
DTITLE=М.Шуфутинский - Наколочка
DYEAR=2002
DGENRE=Шансон
TTITLE0=Наколочка
TTITLE1=У вокзала
TTITLE2=Я поеду на юг
TTITLE3=Аленка
TTITLE4=Дорогая, прочтите листок
TTITLE5=Новый год
TTITLE6=Поезда
TTITLE7=Гитарушка
TTITLE8=Деловые
TTITLE9=Крым
TTITLE10=Курочка
TTITLE11=Костровая
TTITLE12=Цветет багульник
EXTD=All right reserved.\nwww.odyssey.od.ua
EXTT0=
EXTT1=
EXTT2=
EXTT3=
EXTT4=
EXTT5=
EXTT6=
EXTT7=
EXTT8=
EXTT9=
EXTT10=
EXTT11=
EXTT12=
PLAYORDER=
